<svg class="contact-icon" xmlns="http://www.w3.org/2000/svg" viewBox="0 0 388.96 371.13">
  <defs>
    <style>
      .layer-1 {
        fill: #707070;
      }

      .layer-2 {
        fill: #083643;
      }
    </style>
  </defs>
  <title>address</title>
  <path class="layer-1" d="M1795.9,685.29l-183-163.68a4.88,4.88,0,0,0-1-.8,10.83,10.83,0,0,0-14.64-.24l-183,163.68a10.82,10.82,0,0,0,14.4,16.16l33-29.52V861.77a27.23,27.23,0,0,0,27.2,27.2h57.76A25.54,25.54,0,0,0,1572,863.45v-97a3.93,3.93,0,0,1,3.92-3.92h58.32a3.92,3.92,0,0,1,3.92,3.92v97A25.54,25.54,0,0,0,1663.66,889h57.76c15.2,0,27.2-15,27.2-34.08v-183l33,29.52a10.87,10.87,0,0,0,15.28-.88A11,11,0,0,0,1795.9,685.29Zm-69,53.36V854.73c0,7.76-3.84,12.48-5.6,12.48h-57.76a3.93,3.93,0,0,1-3.92-3.92V766.41a25.54,25.54,0,0,0-25.52-25.52h-58.32a25.54,25.54,0,0,0-25.52,25.52v97a3.92,3.92,0,0,1-3.92,3.92h-57.76a5.62,5.62,0,0,1-5.6-5.6V651.53L1604.46,543l122.48,109.52Z" transform="translate(-1410.54 -517.84)"/>
  <path d="M1726.94,738.65" transform="translate(-1410.54 -517.84)"/>
  <path class="layer-2" d="M1658,691.12V652.63a17,17,0,0,0-17-17h-70.84A18.15,18.15,0,0,0,1552,653.76v38.49a17,17,0,0,0,17,17h70.84A18.15,18.15,0,0,0,1658,691.12Zm-23.39,3.68H1569a2.61,2.61,0,0,1-2.61-2.61V653.7a3.74,3.74,0,0,1,3.73-3.73h5.27v.11H1641a2.61,2.61,0,0,1,2.61,2.61v38.49a3.74,3.74,0,0,1-3.73,3.73h-5.27Z" transform="translate(-1410.54 -517.84)"/>
</svg>
