<svg class="chat-icon" xmlns="http://www.w3.org/2000/svg" viewBox="0 0 476.89 434.28">
  <defs>
    <style>
      .chat-layer1 {
        fill: #707070;
      }

      .chat-layer2 {
        fill: #083643;
      }
    </style>
  </defs>
  <path class="chat-layer1" d="M764,245.72a190.82,190.82,0,0,0-270.08,0c-69.6,69.6-74.64,180.8-12.64,256.16-8.56,17.52-18.64,29.2-30.08,34.8a17.82,17.82,0,0,0,5.12,33.6,90.86,90.86,0,0,0,13.52,1c23.44,0,48.08-8.08,68.64-22.24A191,191,0,0,0,764,245.72Zm-15.28,254.8a169.48,169.48,0,0,1-205.52,26.32,10.75,10.75,0,0,0-12.08.72c-24.48,19-49.12,21.76-59.92,22,12.88-9.6,23.68-24.48,32.72-45.2a10.87,10.87,0,0,0-1.84-11.52C442.85,426,446,324,509.17,260.84a169.38,169.38,0,0,1,239.52,0c66.08,66.16,66.08,173.68,0,239.68Zm0,0" transform="translate(-438 -137.52)"/>
  <path class="chat-layer1" d="M708.93,317.72h-160a10.8,10.8,0,0,0,0,21.6h160a10.8,10.8,0,0,0,0-21.6Zm0,0" transform="translate(-438 -137.52)"/>
  <path class="chat-layer1" d="M708.93,370h-160a10.8,10.8,0,0,0,0,21.6h160a10.8,10.8,0,0,0,0-21.6Zm0,0" transform="translate(-438 -137.52)"/>
  <path class="chat-layer1" d="M708.93,422.2h-160a10.8,10.8,0,1,0,0,21.6h160a10.8,10.8,0,1,0,0-21.6Zm0,0" transform="translate(-438 -137.52)"/>
  <path class="chat-layer2" d="M901.72,484.4c-11.36-5.6-21.52-17.28-30.08-34.8,62-75.36,57-186.56-12.64-256.16a190.9,190.9,0,0,0-262.55-7.06,199,199,0,0,1,32.48-2.67c2.23,0,4.45.05,6.67.12a169.54,169.54,0,0,1,208.12,24.8c63.2,63.2,66.32,165.12,7.12,232A10.87,10.87,0,0,0,849,452.16c9,20.72,19.84,35.6,32.72,45.2-10.8-.24-35.44-3-59.92-22a10.75,10.75,0,0,0-12.08-.72q-5.29,3.11-10.78,5.81a197.34,197.34,0,0,1-23.47,32,190.27,190.27,0,0,0,39-15.66C835,511,859.64,519,883.08,519a90.73,90.73,0,0,0,13.52-1,17.82,17.82,0,0,0,5.12-33.6Z" transform="translate(-438 -137.52)"/>
</svg>
