<svg class="contact-icon" xmlns="http://www.w3.org/2000/svg" viewBox="0 0 386.64 294.24">
  <defs>
    <style>
      .layer-1 {
        fill: #707070;
      }

      .layer-2 {
        fill: #083643;
      }
    </style>
  </defs>
  <title>email</title>
  <path class="layer-1" d="M947.92,662.48H655.76a47.32,47.32,0,0,0-47.28,47.28V909.44a47.32,47.32,0,0,0,47.28,47.28H947.84a47.32,47.32,0,0,0,47.28-47.28V709.84a47.27,47.27,0,0,0-47.2-47.36Zm25.68,247a25.71,25.71,0,0,1-25.68,25.68H655.76a25.71,25.71,0,0,1-25.68-25.68V709.84a25.71,25.71,0,0,1,25.68-25.68H947.84a25.71,25.71,0,0,1,25.68,25.68v199.6Zm0,0" transform="translate(-608.48 -662.48)"/>
  <path class="layer-2" d="M852.32,807.12l94.56-84.8a10.82,10.82,0,1,0-14.48-16.08L802,823.28l-25.44-22.72c-.08-.08-.16-.16-.16-.24a16.43,16.43,0,0,0-1.76-1.52L671.12,706.16a10.82,10.82,0,1,0-14.4,16.16l95.68,85.52L657.12,897a10.84,10.84,0,0,0-.48,15.28,11.06,11.06,0,0,0,7.92,3.44,10.83,10.83,0,0,0,7.36-2.88l96.72-90.48,26.24,23.44a10.78,10.78,0,0,0,14.4-.08l27-24.16L932.4,913a10.82,10.82,0,0,0,15.28-.4,10.84,10.84,0,0,0-.4-15.28Zm0,0" transform="translate(-608.48 -662.48)"/>
</svg>
