<svg xmlns="http://www.w3.org/2000/svg" xmlns:xlink="http://www.w3.org/1999/xlink" viewBox="0 0 281.14 120.66">
  <defs>
    <style>
      .cls-1 {
        fill: url(#linear-gradient);
      }

      .cls-2 {
        fill: #fff;
      }
    </style>
    <linearGradient id="linear-gradient" x1="20.03" y1="21.91" x2="102.39" y2="104.27" gradientUnits="userSpaceOnUse">
      <stop offset="0" stop-color="#a0e001"/>
      <stop offset="1" stop-color="#24a227"/>
    </linearGradient>
  </defs>
  <title>Asset 1</title>
  <g id="Layer_2" data-name="Layer 2">
    <g id="Layer_1-2" data-name="Layer 1">
      <path class="cls-1" d="M118.35,62.89c0,10.86-5,19.19-10.06,28-5.24,9-9.1,19.26-18.15,24.49-8.77,5.07-19.42,5.32-30.28,5.32S40.77,116.23,32,111.15C22.95,105.92,11.27,103,6,94,1,85.2,0,73.75,0,62.89S5.07,43,10.15,34.2c5.24-9,12.33-15.14,21.38-20.37C40.3,8.75,49,0,59.86,0S80.15,7.47,88.92,12.55C98,17.78,109.84,22,115.08,31,120.15,39.78,118.35,52,118.35,62.89Z"/>
      <g>
        <rect class="cls-2" x="35.62" y="81.07" width="12.12" height="12.12"/>
        <polygon class="cls-2" points="47.74 56.83 35.62 56.83 35.62 68.95 47.74 68.95 59.85 68.95 71.97 68.95 71.97 56.83 59.85 56.83 47.74 56.83"/>
        <path class="cls-2" d="M72,32.6H47.74A12.12,12.12,0,0,0,35.62,44.72H84.09V32.6Z"/>
      </g>
      <g>
        <path class="cls-2" d="M155.61,30.62v2.43h-12v8.26h10.76v2.4H143.61v9.94H141v-23Z"/>
        <path class="cls-2" d="M162.13,30.62V51.21h10.1v2.43H159.5v-23Z"/>
        <path class="cls-2" d="M185.69,51.34c4.38,0,7-2.63,7-7.17V30.62h2.63V44.17c0,6-3.62,9.57-9.64,9.57S176,50.19,176,44.17V30.62h2.63V44.17C178.61,48.71,181.31,51.34,185.69,51.34Z"/>
        <path class="cls-2" d="M204.41,30.62v23h-2.63v-23Z"/>
        <path class="cls-2" d="M232.54,42.13c0,6.55-5.17,11.51-11.94,11.51h-9.21v-23h9.31A11.46,11.46,0,0,1,232.54,42.13Zm-2.67,0a9,9,0,0,0-9.24-9.11H214V51.21h6.71A8.94,8.94,0,0,0,229.87,42.16Z"/>
        <path class="cls-2" d="M252.41,53.65l-4.84-7.37c-.46,0-1,.07-1.48.07H240v7.3h-2.63v-23h8.75c5.76,0,9.08,2.83,9.08,7.73,0,3.78-1.87,6.38-5.2,7.44l5.43,7.86Zm-6.32-9.74c4.18,0,6.55-1.88,6.55-5.49s-2.37-5.36-6.55-5.36H240V43.91Z"/>
        <path class="cls-2" d="M275.68,47.76H263.14l-2.57,5.89h-2.8l10.33-23h2.73l10.3,23h-2.86Zm-1.05-2.43-5.23-11.84-5.17,11.84Z"/>
        <path class="cls-2" d="M162.13,81.61c0,6.55-5.17,11.51-11.94,11.51H141v-23h9.31A11.46,11.46,0,0,1,162.13,81.61Zm-2.67,0a9,9,0,0,0-9.24-9.11h-6.61V90.69h6.71A8.94,8.94,0,0,0,159.46,81.65Z"/>
        <path class="cls-2" d="M182.56,70.1v2.43h-13v7.73h11.61v2.4H169.57v8H183v2.43H166.93v-23Z"/>
        <path class="cls-2" d="M195,72.57c-3,0-4.9,1.18-4.9,3.16,0,6,13,2.86,12.93,11.22,0,3.82-3.39,6.28-8.32,6.28a13.14,13.14,0,0,1-8.82-3.52l1.18-2.27a11.57,11.57,0,0,0,7.67,3.22c3.32,0,5.4-1.35,5.4-3.59,0-6.15-12.93-2.89-12.93-11.15,0-3.62,3.19-5.92,8-5.92a13.63,13.63,0,0,1,7.3,2.14l-1.12,2.34A12.13,12.13,0,0,0,195,72.57Z"/>
        <path class="cls-2" d="M211.09,70.1v23h-2.63v-23Z"/>
        <path class="cls-2" d="M234.12,81.88h2.34v8.36a14.2,14.2,0,0,1-8.55,3,11.74,11.74,0,0,1-12-11.61C215.89,75.13,221.26,70,228,70a13,13,0,0,1,8.49,3.16L235,75.1a10.58,10.58,0,0,0-7-2.66,9.2,9.2,0,1,0,0,18.39,11,11,0,0,0,6.05-1.94Z"/>
        <path class="cls-2" d="M245.57,70.1l13.82,18.72V70.1H262v23h-2.7L245.47,74.44V93.13h-2.63v-23Z"/>
      </g>
    </g>
  </g>
</svg>
