<svg id="Layer_1" data-name="Layer 1" xmlns="http://www.w3.org/2000/svg" viewBox="0 0 281.14 120.66">
  <path class="cls-1" d="M275.4,95.93c-5.24-9-17.11-13.23-26.16-18.46-8.77-5.07-18.2-12.55-29.06-12.55s-19.55,8.75-28.32,13.83c-9,5.24-16.15,11.32-21.38,20.37-5.07,8.77-10.15,17.83-10.15,28.69s1,22.3,6,31.08c5.24,9,16.91,11.95,26,17.18,8.77,5.07,17,9.51,27.86,9.51s21.51-.24,30.28-5.32c9-5.24,12.92-15.45,18.15-24.49,5.07-8.77,10.06-17.1,10.06-28S280.48,104.7,275.4,95.93Zm-67.34,62.17H196V146h12.12Zm24.23-24.23H196V121.76H232.3Zm12.12-24.23H196a12.12,12.12,0,0,1,12.12-12.12h36.35Z" transform="translate(-160.33 -64.92)"/>
  <g>
    <path class="cls-1" d="M315.94,95.54V98h-12v8.26h10.76v2.4H303.93v9.94H301.3v-23Z" transform="translate(-160.33 -64.92)"/>
    <path class="cls-1" d="M322.46,95.54v20.59h10.1v2.43H319.83v-23Z" transform="translate(-160.33 -64.92)"/>
    <path class="cls-1" d="M346,116.27c4.38,0,7-2.63,7-7.17V95.54h2.63v13.55c0,6-3.62,9.57-9.64,9.57s-9.71-3.55-9.71-9.57V95.54h2.63v13.55C338.94,113.63,341.64,116.27,346,116.27Z" transform="translate(-160.33 -64.92)"/>
    <path class="cls-1" d="M364.74,95.54v23h-2.63v-23Z" transform="translate(-160.33 -64.92)"/>
    <path class="cls-1" d="M392.87,107.05c0,6.55-5.17,11.51-11.94,11.51h-9.21v-23H381A11.46,11.46,0,0,1,392.87,107.05Zm-2.67,0A9,9,0,0,0,381,98h-6.61v18.16h6.71A8.94,8.94,0,0,0,390.2,107.09Z" transform="translate(-160.33 -64.92)"/>
    <path class="cls-1" d="M412.74,118.57l-4.84-7.37c-.46,0-1,.07-1.48.07H400.3v7.3h-2.63v-23h8.75c5.76,0,9.08,2.83,9.08,7.73,0,3.78-1.87,6.38-5.2,7.44l5.43,7.86Zm-6.32-9.74c4.18,0,6.55-1.88,6.55-5.49S410.6,98,406.42,98H400.3v10.86Z" transform="translate(-160.33 -64.92)"/>
    <path class="cls-1" d="M436,112.68H423.47l-2.57,5.89h-2.8l10.33-23h2.73l10.3,23H438.6ZM435,110.25,429.72,98.4l-5.17,11.84Z" transform="translate(-160.33 -64.92)"/>
    <path class="cls-1" d="M322.45,146.54c0,6.55-5.17,11.51-11.94,11.51H301.3V135h9.31A11.46,11.46,0,0,1,322.45,146.54Zm-2.67,0a9,9,0,0,0-9.24-9.11h-6.61v18.16h6.71A8.94,8.94,0,0,0,319.79,146.57Z" transform="translate(-160.33 -64.92)"/>
    <path class="cls-1" d="M342.89,135v2.43h-13v7.73h11.61v2.4H329.89v8h13.42v2.43H327.26V135Z" transform="translate(-160.33 -64.92)"/>
    <path class="cls-1" d="M355.36,137.49c-3,0-4.9,1.18-4.9,3.16,0,6,13,2.86,12.93,11.22,0,3.82-3.39,6.28-8.32,6.28a13.14,13.14,0,0,1-8.82-3.52l1.18-2.27a11.57,11.57,0,0,0,7.67,3.22c3.32,0,5.4-1.35,5.4-3.59,0-6.15-12.93-2.89-12.93-11.15,0-3.62,3.19-5.92,8-5.92a13.63,13.63,0,0,1,7.3,2.14l-1.12,2.34A12.13,12.13,0,0,0,355.36,137.49Z" transform="translate(-160.33 -64.92)"/>
    <path class="cls-1" d="M371.42,135v23h-2.63V135Z" transform="translate(-160.33 -64.92)"/>
    <path class="cls-1" d="M394.45,146.8h2.34v8.36a14.2,14.2,0,0,1-8.55,3,11.74,11.74,0,0,1-12-11.61c0-6.48,5.36-11.58,12.14-11.58a13,13,0,0,1,8.49,3.16L395.33,140a10.58,10.58,0,0,0-7-2.66,9.2,9.2,0,1,0,0,18.39,11,11,0,0,0,6.05-1.94Z" transform="translate(-160.33 -64.92)"/>
    <path class="cls-1" d="M405.9,135l13.82,18.72V135h2.6v23h-2.7L405.8,139.37v18.69h-2.63V135Z" transform="translate(-160.33 -64.92)"/>
  </g>
</svg>
