<svg xmlns="http://www.w3.org/2000/svg" viewBox="0 0 100 100">
  <path class="layer-1" d="M59.82,77.5H40.18a13.11,13.11,0,0,1-10.8-20.64L42.31,38.48A3.6,3.6,0,0,1,45.25,37h9.49a3.6,3.6,0,0,1,2.95,1.53L70.62,56.86A13.11,13.11,0,0,1,59.82,77.5ZM45.25,39.34a1.2,1.2,0,0,0-1,.51L31.34,58.22a10.73,10.73,0,0,0,8.84,16.89H59.82a10.73,10.73,0,0,0,8.84-16.89L55.73,39.85a1.2,1.2,0,0,0-1-.51Z"/>
  <path class="layer-1" d="M54.37,34.57H45.82A3.61,3.61,0,0,1,42.36,32l-2.11-7.35.58-.5a7.43,7.43,0,0,1,4.47-1.62,6.67,6.67,0,0,1,4.27,1.6.92.92,0,0,0,.63.21h0A6.49,6.49,0,0,0,52,23.86a9,9,0,0,1,2.87-.63c2,0,3.49,1.21,4.61,3.7l.21.46-2,4.93A3.58,3.58,0,0,1,54.37,34.57ZM43,25.53l1.66,5.79a1.2,1.2,0,0,0,1.15.87h8.55a1.19,1.19,0,0,0,1.11-.75l1.6-4c-.95-1.84-1.82-1.84-2.21-1.84a7,7,0,0,0-2.09.5,8.17,8.17,0,0,1-2.6.58h0A3.31,3.31,0,0,1,48,26a4.33,4.33,0,0,0-2.75-1.07A4.76,4.76,0,0,0,43,25.53Z"/>
  <path class="layer-1" d="M48.8,34.57a1.2,1.2,0,0,1-1.19-1l-1.2-8.35a1.2,1.2,0,0,1,2.37-.34L50,33.21a1.19,1.19,0,0,1-1,1.35Z"/>
  <path class="layer-1" d="M49.45,68a6,6,0,0,1-5.57-3.22,1.24,1.24,0,0,1,.61-1.62,1.19,1.19,0,0,1,1.58.58,3.84,3.84,0,0,0,3.43,1.71A2.66,2.66,0,0,0,52,63.19c.27-1.68-1.22-3.25-4-4.2a5.11,5.11,0,0,1-3.7-5.74,5.25,5.25,0,0,1,5.09-4.37h.06a5.42,5.42,0,0,1,4.78,3,1.27,1.27,0,0,1-.56,1.66,1.19,1.19,0,0,1-1.59-.51,3.06,3.06,0,0,0-2.65-1.53,2.76,2.76,0,0,0-2.77,2.26c-.23,1.31.57,2.41,2.12,2.94,5.89,2,5.77,5.83,5.59,6.92A5.1,5.1,0,0,1,49.52,68Z"/>
  <path class="layer-1" d="M49.39,70.34a1.13,1.13,0,0,1-1.2-1.1l-.1-21.58a1.17,1.17,0,0,1,1.19-1.17h0a1.2,1.2,0,0,1,1.2,1.2l.1,21.53a1.13,1.13,0,0,1-1.19,1.12Z"/>
</svg>
