<svg xmlns="http://www.w3.org/2000/svg" viewBox="0 0 100 100">
  <path class="layer-1" d="M37.62,38.86H25.24A1.24,1.24,0,0,1,24,37.62V25.24A1.24,1.24,0,0,1,25.24,24H37.62a1.24,1.24,0,0,1,1.24,1.24V37.62A1.24,1.24,0,0,1,37.62,38.86ZM26.48,36.38h9.9V26.48h-9.9Z"/>
  <path class="layer-1" d="M56.19,38.86H43.81a1.24,1.24,0,0,1-1.24-1.24V25.24A1.24,1.24,0,0,1,43.81,24H56.19a1.24,1.24,0,0,1,1.24,1.24V37.62A1.24,1.24,0,0,1,56.19,38.86ZM45,36.38H55V26.48H45Z"/>
  <path class="layer-1" d="M74.76,38.86H62.38a1.24,1.24,0,0,1-1.24-1.24V25.24A1.24,1.24,0,0,1,62.38,24H74.76A1.24,1.24,0,0,1,76,25.24V37.62A1.24,1.24,0,0,1,74.76,38.86ZM63.62,36.38h9.9V26.48h-9.9Z"/>
  <path class="layer-1" d="M37.62,57.43H25.24A1.24,1.24,0,0,1,24,56.19V43.81a1.24,1.24,0,0,1,1.24-1.24H37.62a1.24,1.24,0,0,1,1.24,1.24V56.19A1.24,1.24,0,0,1,37.62,57.43ZM26.48,55h9.9V45h-9.9Z"/>
  <path class="layer-1" d="M56.19,57.43H43.81a1.24,1.24,0,0,1-1.24-1.24V43.81a1.24,1.24,0,0,1,1.24-1.24H56.19a1.24,1.24,0,0,1,1.24,1.24V56.19A1.24,1.24,0,0,1,56.19,57.43ZM45,55H55V45H45Z"/>
  <path class="layer-1" d="M74.76,57.43H62.38a1.24,1.24,0,0,1-1.24-1.24V43.81a1.24,1.24,0,0,1,1.24-1.24H74.76A1.24,1.24,0,0,1,76,43.81V56.19A1.24,1.24,0,0,1,74.76,57.43ZM63.62,55h9.9V45h-9.9Z"/>
  <path class="layer-1" d="M37.62,76H25.24A1.24,1.24,0,0,1,24,74.76V62.38a1.24,1.24,0,0,1,1.24-1.24H37.62a1.24,1.24,0,0,1,1.24,1.24V74.76A1.24,1.24,0,0,1,37.62,76ZM26.48,73.52h9.9v-9.9h-9.9Z"/>
  <path class="layer-1" d="M56.19,76H43.81a1.24,1.24,0,0,1-1.24-1.24V62.38a1.24,1.24,0,0,1,1.24-1.24H56.19a1.24,1.24,0,0,1,1.24,1.24V74.76A1.24,1.24,0,0,1,56.19,76ZM45,73.52H55v-9.9H45Z"/>
  <path class="layer-1" d="M74.76,76H62.38a1.24,1.24,0,0,1-1.24-1.24V62.38a1.24,1.24,0,0,1,1.24-1.24H74.76A1.24,1.24,0,0,1,76,62.38V74.76A1.24,1.24,0,0,1,74.76,76ZM63.62,73.52h9.9v-9.9h-9.9Z"/>
</svg>
