<svg xmlns="http://www.w3.org/2000/svg" viewBox="0 0 100 100">
  <defs>
    <style>
      .layer-1 {
        fill: #7AC531;
      }
      .layer-2 {
        stroke: #7AC531;
        stroke-width: 4;
        fill: none;
      }
    </style>
  </defs>
  <path class="layer-1" d="M71.36,78.35H28.64a1.23,1.23,0,0,1-1.22-1.23V73.33a3.72,3.72,0,0,1,3.66-3.6,5.2,5.2,0,0,0,5.17-4.49q0-.21.05-.43H36a3.6,3.6,0,0,1-3.66-3.48s0,0,0-.07v0s0-.06,0-.1A3.82,3.82,0,0,1,36,57.42h.5a15.94,15.94,0,0,1,7.14-9.83,25,25,0,0,0,2.64-1.71l-.83.05A10.86,10.86,0,0,0,40.56,47a11.58,11.58,0,0,1-5.25,1.66,5.48,5.48,0,0,1-3.63-1.42A4.35,4.35,0,0,1,30,44a4.51,4.51,0,0,1,1.66-3.48c.4-.37.87-.77,1.38-1.2,2.05-1.72,4.61-3.87,5.85-7.22a8.23,8.23,0,0,1,6.88-5.2c.11-.93.17-2.62.17-4A1.23,1.23,0,0,1,47,21.66c2.78-.19,5.76,2.51,6.86,3.62,2,0,6.95,1,11.49,9.85,3.23,6.28,3,13.8-.66,22.36a3.8,3.8,0,0,1,3,3.7v.13A3.54,3.54,0,0,1,64,64.81H62.5l0,.2a5.2,5.2,0,0,0,5.2,4.72h1.2a3.72,3.72,0,0,1,3.66,3.6v3.79A1.23,1.23,0,0,1,71.36,78.35Zm-41.5-2.46H70.14V73.33a1.32,1.32,0,0,0-1.22-1.13h-1.2a7.64,7.64,0,0,1-7.63-7,11.37,11.37,0,0,1,0-1.74,1.22,1.22,0,0,1,1.22-1.16H64a1.1,1.1,0,0,0,1.22-1v-.13A1.32,1.32,0,0,0,64,59.89H62.87a1.22,1.22,0,0,1-1-.57,1.24,1.24,0,0,1-.07-1.19c4-8.53,4.53-15.89,1.46-21.86-4.07-7.91-8.2-8.52-9.37-8.52H53.6a1.24,1.24,0,0,1-1.1-.39,12.82,12.82,0,0,0-4.18-3.06c-.08,3.65-.45,4.23-.6,4.46a1.16,1.16,0,0,1-1,.56c-.17,0-4.21,0-5.54,3.66-1.47,4-4.42,6.45-6.57,8.26-.48.4-.92.77-1.29,1.12A2.32,2.32,0,0,0,32.4,44a2,2,0,0,0,.82,1.37,3,3,0,0,0,2.1.87,9.52,9.52,0,0,0,4.11-1.37,13.15,13.15,0,0,1,5.85-1.35c2.28-.13,4.25-.25,6.43-2.5a1.21,1.21,0,0,1,1.71,0,1.24,1.24,0,0,1,.07,1.72,38.66,38.66,0,0,1-8.7,7.09,13.05,13.05,0,0,0-6,9,1.23,1.23,0,0,1-1.22,1.15H36a1.38,1.38,0,0,0-1.22,1.37A1.16,1.16,0,0,0,36,62.35h1.65a1.21,1.21,0,0,1,.88.38,1.24,1.24,0,0,1,.34.9c0,.69-.08,1.33-.16,1.94a7.66,7.66,0,0,1-7.59,6.63,1.32,1.32,0,0,0-1.22,1.13Z"/>
  <path class="layer-1" d="M55.49,59.89a1.2,1.2,0,0,1-.67-.2,1.24,1.24,0,0,1-.35-1.7c5.19-8,5.44-12.27,4.73-14.46a3.54,3.54,0,0,0-1.71-2.18,1.23,1.23,0,0,1-.71-1.59A1.22,1.22,0,0,1,58.37,39a5.94,5.94,0,0,1,3.16,3.72c1.26,3.92-.42,9.5-5,16.57A1.22,1.22,0,0,1,55.49,59.89Z"/>
  <path class="layer-1" d="M33.52,47.57a1.22,1.22,0,0,1-1.19-1c-.28-1.22.83-1.71,2-2.22a14.45,14.45,0,0,0,5.58-3.78,1.22,1.22,0,0,1,1.72-.15,1.24,1.24,0,0,1,.14,1.74,16.61,16.61,0,0,1-6.47,4.45l-.75.34a1.22,1.22,0,0,1-.75.54A1.23,1.23,0,0,1,33.52,47.57Z"/>
  <circle class="layer-2" cx="50" cy="50" r="45"/>
</svg>
