<svg class="package-icon" xmlns="http://www.w3.org/2000/svg" viewBox="0 0 230 230">
  <defs>
    <style>
      .layer-1 {
        fill: #FFFFFF;
      }

      .layer-2 {
        fill: #7BB515;
      }
    </style>
  </defs>
  <path class="layer-1" d="M236.2,72.48h-40a87.09,87.09,0,0,0-3.62-10.32,4.46,4.46,0,0,0-4.11-2.73h-120a4.46,4.46,0,0,0-4.11,2.73,87,87,0,0,0-3.62,10.32H21.13a4.46,4.46,0,0,0-4.46,4.46c0,18.06,5.87,35.07,16.54,47.9C43.7,137.48,57.6,144.62,72.5,145.09c.4.6.81,1.19,1.23,1.78a87.07,87.07,0,0,0,38.5,30.33v10.42h-5.55a4.46,4.46,0,0,0,0,8.93h5.55v8h-5.55a4.46,4.46,0,0,0,0,8.93h5.55v10.52H100.58a24.19,24.19,0,0,0-24.15,24.16V253a4.46,4.46,0,0,0,4.46,4.46H176a4.46,4.46,0,0,0,4.46-4.46v-4.86a24.19,24.19,0,0,0-24.15-24.16H144.68V213.43h6a4.46,4.46,0,0,0,0-8.93h-6v-8h6a4.46,4.46,0,0,0,0-8.93h-6V177.2a87.39,87.39,0,0,0,54.73-81.06,88,88,0,0,0-1.24-14.72H231.6c-1.32,20.91-11.79,39.82-27.44,49a4.46,4.46,0,1,0,4.51,7.7,62.3,62.3,0,0,0,23.2-24.84,77.72,77.72,0,0,0,8.8-36.32A4.46,4.46,0,0,0,236.2,72.48ZM25.73,81.41h33A87.93,87.93,0,0,0,57.5,96.14a86.85,86.85,0,0,0,9.36,39.4C44.72,131.48,27.42,109.06,25.73,81.41Zm130.6,151.46a15.25,15.25,0,0,1,15.23,15.24v.4H85.35v-.4a15.25,15.25,0,0,1,15.23-15.24Zm-20.57-19.44v10.52h-14.6V213.43Zm-14.6-8.93v-8h14.6v8Zm17.55-34.58a4.46,4.46,0,0,0-2.95,4.2v13.49h-14.6V174.12a4.46,4.46,0,0,0-2.95-4.2A78.57,78.57,0,0,1,68.35,78.79a4.44,4.44,0,0,0,.39-1.66,77.66,77.66,0,0,1,2.74-8.77H185.43A78.53,78.53,0,0,1,138.7,169.93Z" transform="translate(-13.67 -36.43)"/>
  <path class="layer-1" d="M109.68,147.32c-9.6-5.31-17.5-14.55-22.25-26a4.46,4.46,0,1,0-8.24,3.42c5.53,13.34,14.82,24.15,26.18,30.43a4.46,4.46,0,0,0,4.32-7.81Z" transform="translate(-13.67 -36.43)"/>
  <path class="layer-1" d="M79.8,112.56a4.46,4.46,0,0,0,3.65-5.15,68.75,68.75,0,0,1-1-11.48,4.46,4.46,0,1,0-8.92,0,77.71,77.71,0,0,0,1.09,13A4.46,4.46,0,0,0,79,112.63,4.39,4.39,0,0,0,79.8,112.56Z" transform="translate(-13.67 -36.43)"/>
  <path class="layer-2" d="M211.77,46.3l4,4a3,3,0,0,1,0,4.22l-4,4a3,3,0,0,1-4.22,0l-4-4a3,3,0,0,1,0-4.22l4-4A3,3,0,0,1,211.77,46.3Z" transform="translate(-13.67 -36.43)"/>
  <path class="layer-2" d="M30.77,53.3l4,4a3,3,0,0,1,0,4.22l-4,4a3,3,0,0,1-4.22,0l-4-4a3,3,0,0,1,0-4.22l4-4A3,3,0,0,1,30.77,53.3Z" transform="translate(-13.67 -36.43)"/>
  <path class="layer-2" d="M61.77,225.3l4,4a3,3,0,0,1,0,4.22l-4,4a3,3,0,0,1-4.22,0l-4-4a3,3,0,0,1,0-4.22l4-4A3,3,0,0,1,61.77,225.3Z" transform="translate(-13.67 -36.43)"/>
  <path class="layer-2" d="M200.77,162.3l4,4a3,3,0,0,1,0,4.22l-4,4a3,3,0,0,1-4.22,0l-4-4a3,3,0,0,1,0-4.22l4-4A3,3,0,0,1,200.77,162.3Z" transform="translate(-13.67 -36.43)"/>
</svg>
