<svg class="package-icon" xmlns="http://www.w3.org/2000/svg" viewBox="0 0 230 230">
  <defs>
    <style>
      .layer-1 {
        fill: #FFFFFF;
      }

      .layer-2 {
        fill: #7BB515;
      }
    </style>
  </defs>
  <path class="layer-1" d="M234.69,192.61,222.5,171.89l-40.95-69.45V91.14h0a4.15,4.15,0,0,0-.52-2L160.37,51.85a4.13,4.13,0,0,0-7.22,0L132.49,89.13a4.15,4.15,0,0,0-.52,2h0v11.3L91,171.9,78.83,192.61a4.14,4.14,0,0,0,3.56,6.25h55.78v8.29a4.14,4.14,0,0,0,4.13,4.14h28.92a4.14,4.14,0,0,0,4.13-4.14v-8.29h55.78a4.14,4.14,0,0,0,3.56-6.25Zm-102.72-2H89.62l7.31-12.43h28.83v-8.29h-24L132,118.72ZM156.76,62.39,170.4,87H143.12ZM167.09,203H146.43v-4.14h20.66Zm6.2-12.43H140.23V145h33.05Zm0-87v33.14H140.23V95.29h33.05Zm8.26,87V118.72l30.15,51.14h-24v8.29h28.83l7.31,12.43Z" transform="translate(-41.25 -36.22)"/>
  <path class="layer-1" d="M156.76,130.5a12.43,12.43,0,1,0-12.4-12.43A12.43,12.43,0,0,0,156.76,130.5Zm0-16.57a4.14,4.14,0,1,1-4.13,4.14A4.14,4.14,0,0,1,156.76,113.93Z" transform="translate(-41.25 -36.22)"/>
  <path class="layer-1" d="M156.76,244.28c-3.42-1.09-16.53-6.73-16.53-28.85H132c0,9.11,2,21.8,11.7,30.53a28,28,0,0,0,12.28,6.68,4.14,4.14,0,0,0,1.62,0A28,28,0,0,0,169.85,246c9.67-8.72,11.7-21.42,11.7-30.53h-8.26C173.29,237.59,160.23,243.19,156.76,244.28Z" transform="translate(-41.25 -36.22)"/>
  <path class="layer-1" d="M152.63,215.43h8.26V232h-8.26Z" transform="translate(-41.25 -36.22)"/>
  <path class="layer-2" d="M199.36,64.58l4,4a3,3,0,0,1,0,4.22l-4,4a3,3,0,0,1-4.22,0l-4-4a3,3,0,0,1,0-4.22l4-4A3,3,0,0,1,199.36,64.58Z" transform="translate(-41.25 -36.22)"/>
  <path class="layer-2" d="M83.36,124.58l4,4a3,3,0,0,1,0,4.22l-4,4a3,3,0,0,1-4.22,0l-4-4a3,3,0,0,1,0-4.22l4-4A3,3,0,0,1,83.36,124.58Z" transform="translate(-41.25 -36.22)"/>
  <path class="layer-2" d="M97.36,222.58l4,4a3,3,0,0,1,0,4.22l-4,4a3,3,0,0,1-4.22,0l-4-4a3,3,0,0,1,0-4.22l4-4A3,3,0,0,1,97.36,222.58Z" transform="translate(-41.25 -36.22)"/>
  <path class="layer-2" d="M233.36,138.58l4,4a3,3,0,0,1,0,4.22l-4,4a3,3,0,0,1-4.22,0l-4-4a3,3,0,0,1,0-4.22l4-4A3,3,0,0,1,233.36,138.58Z" transform="translate(-41.25 -36.22)"/>
</svg>
