<svg class="package-icon" xmlns="http://www.w3.org/2000/svg" viewBox="0 0 230 230">
  <defs>
    <style>
      .layer-1 {
        fill: #FFFFFF;
      }

      .layer-2 {
        fill: #7BB515;
      }
    </style>
  </defs>
  <path class="layer-1" d="M145.73,132.19a3.37,3.37,0,0,0,.6-.05,54.84,54.84,0,0,1,9.67-.86,3.37,3.37,0,1,0,0-6.73,61.91,61.91,0,0,0-10.87,1,3.37,3.37,0,0,0,.6,6.68Z" transform="translate(-45.49 -43.21)"/>
  <path class="layer-1" d="M105.26,204.09a53.93,53.93,0,0,1-2-31.44,3.39,3.39,0,0,0-6.59-1.56,60.62,60.62,0,0,0,2.22,35.37,3.38,3.38,0,0,0,6.34-2.37Z" transform="translate(-45.49 -43.21)"/>
  <path class="layer-1" d="M103.39,161.64a3.4,3.4,0,0,0,4.57-1.42,54.4,54.4,0,0,1,25.66-24.13,3.36,3.36,0,0,0,1.68-4.46,3.39,3.39,0,0,0-4.48-1.67A61.2,61.2,0,0,0,102,157.09,3.36,3.36,0,0,0,103.39,161.64Z" transform="translate(-45.49 -43.21)"/>
  <path class="layer-1" d="M101.85,118.21a3.39,3.39,0,0,0,6.73-.79l-6.33-53.47h13.47l4.81,44.13a3.38,3.38,0,0,0,3.36,3l.37,0a3.37,3.37,0,0,0,3-3.71l-4.73-43.41h67l-4.78,43.4a3.37,3.37,0,0,0,3,3.71l.37,0a3.38,3.38,0,0,0,3.36-3l4.85-44.13h13.47l-6.33,53.47a3.37,3.37,0,0,0,3,3.74l.4,0a3.38,3.38,0,0,0,3.36-3L216.94,61a3.37,3.37,0,0,0-3.36-3.76H98.44A3.37,3.37,0,0,0,95.07,61Z" transform="translate(-45.49 -43.21)"/>
  <path class="layer-1" d="M208.68,172.46A3.38,3.38,0,0,0,212,175a3.43,3.43,0,0,0,.8-.09,3.37,3.37,0,0,0,2.5-4.06,60.24,60.24,0,0,0-5.47-14.27,3.4,3.4,0,0,0-4.59-1.38,3.36,3.36,0,0,0-1.39,4.56A53.27,53.27,0,0,1,208.68,172.46Z" transform="translate(-45.49 -43.21)"/>
  <path class="layer-1" d="M168.89,132.81a53.88,53.88,0,0,1,28.43,17.48,3.38,3.38,0,0,0,5.16-4.36,60.61,60.61,0,0,0-32-19.67,3.37,3.37,0,1,0-1.6,6.54Z" transform="translate(-45.49 -43.21)"/>
  <path class="layer-1" d="M194.47,223.09a54.75,54.75,0,0,1-8,6.63,3.37,3.37,0,0,0,3.81,5.57,61.33,61.33,0,0,0,9-7.45,3.35,3.35,0,0,0,0-4.76A3.4,3.4,0,0,0,194.47,223.09Z" transform="translate(-45.49 -43.21)"/>
  <path class="layer-1" d="M213.57,181.78a3.38,3.38,0,0,0-3.39,3.37,53.47,53.47,0,0,1-8.3,28.66,3.37,3.37,0,0,0,2.86,5.16,3.39,3.39,0,0,0,2.87-1.57A60.18,60.18,0,0,0,217,185.15,3.38,3.38,0,0,0,213.57,181.78Z" transform="translate(-45.49 -43.21)"/>
  <path class="layer-1" d="M156,111.08c-41.08,0-74.5,33.23-74.5,74.07s33.42,74.07,74.5,74.07,74.5-33.23,74.5-74.07S197.09,111.08,156,111.08Zm0,141.4c-37.35,0-67.73-30.21-67.73-67.33s30.38-67.33,67.73-67.33,67.73,30.21,67.73,67.33S193.35,252.48,156,252.48Z" transform="translate(-45.49 -43.21)"/>
  <path class="layer-1" d="M176,192.09l17.8-14.34a3.35,3.35,0,0,0,1.06-3.74,3.39,3.39,0,0,0-3.19-2.24H168.4l-9.28-21.61a3.39,3.39,0,0,0-6.22,0l-9.28,21.61H120.32a3.36,3.36,0,0,0-2,6.09l18.78,13.56-8,22.92a3.36,3.36,0,0,0,1,3.63,3.41,3.41,0,0,0,3.75.48l22.65-11.21,21.69,11.19a3.41,3.41,0,0,0,3.73-.4,3.36,3.36,0,0,0,1.07-3.58Zm-18,8.39a3.39,3.39,0,0,0-3.07,0l-16.76,8.3,6.11-17.48a3.35,3.35,0,0,0-1.21-3.83l-12.38-8.94h15.1a3.38,3.38,0,0,0,3.11-2l7-16.4,7,16.4a3.38,3.38,0,0,0,3.11,2h16L170,188.29a3.35,3.35,0,0,0-1.11,3.61l5.23,16.86Z" transform="translate(-45.49 -43.21)"/>
  <path class="layer-1" d="M120.83,226.12a54.18,54.18,0,0,1-9.52-10.52,3.4,3.4,0,0,0-4.71-.87,3.35,3.35,0,0,0-.88,4.68,60.81,60.81,0,0,0,10.71,11.83,3.35,3.35,0,0,0,2.19.81,3.39,3.39,0,0,0,2.58-1.18A3.35,3.35,0,0,0,120.83,226.12Z" transform="translate(-45.49 -43.21)"/>
  <path class="layer-1" d="M175.16,235.55a54.64,54.64,0,0,1-42.75-1.9,3.4,3.4,0,0,0-4.52,1.56,3.36,3.36,0,0,0,1.57,4.5,61.47,61.47,0,0,0,48.1,2.14,3.37,3.37,0,1,0-2.39-6.3Z" transform="translate(-45.49 -43.21)"/>
  <path class="layer-2" d="M234.78,72.07,238.72,76a2.93,2.93,0,0,1,0,4.15l-3.94,3.94a2.93,2.93,0,0,1-4.15,0l-3.94-3.94a2.93,2.93,0,0,1,0-4.15l3.94-3.94A2.93,2.93,0,0,1,234.78,72.07Z" transform="translate(-45.49 -43.21)"/>
  <path class="layer-2" d="M90.33,115.3l3.94,3.94a2.93,2.93,0,0,1,0,4.15l-3.94,3.94a2.93,2.93,0,0,1-4.15,0l-3.94-3.94a2.93,2.93,0,0,1,0-4.15l3.94-3.94A2.93,2.93,0,0,1,90.33,115.3Z" transform="translate(-45.49 -43.21)"/>
  <path class="layer-2" d="M85.61,230.08l4,4a3,3,0,0,1,0,4.22l-4,4a3,3,0,0,1-4.22,0l-4-4a3,3,0,0,1,0-4.22l4-4A3,3,0,0,1,85.61,230.08Z" transform="translate(-45.49 -43.21)"/>
  <path class="layer-2" d="M239.69,220.44l3.94,3.94a2.93,2.93,0,0,1,0,4.15l-3.94,3.94a2.93,2.93,0,0,1-4.15,0l-3.94-3.94a2.93,2.93,0,0,1,0-4.15l3.94-3.94A2.93,2.93,0,0,1,239.69,220.44Z" transform="translate(-45.49 -43.21)"/>
</svg>
