<svg xmlns="http://www.w3.org/2000/svg" viewBox="0 0 100 100">
  <defs>
    <style>
      .cls-1 {
        fill: #fff;
      }

      .cls-1, .cls-2 {
        fill-rule: evenodd;
      }

      .cls-2 {
        fill: #7ab542;
      }
    </style>
  </defs>
  <path class="cls-1" d="M1457,534a50,50,0,1,1,50-50A50.06,50.06,0,0,1,1457,534Zm0-95.65A45.65,45.65,0,1,0,1502.65,484,45.7,45.7,0,0,0,1457,438.35Z" transform="translate(-1407 -434)"/>
  <path class="cls-2" d="M1446.13,507.37a2.17,2.17,0,0,1-2.17-2.17V462.8a2.17,2.17,0,0,1,3.48-1.74l28.26,21.2a2.17,2.17,0,0,1,0,3.48l-28.26,21.2A2.17,2.17,0,0,1,1446.13,507.37Zm2.17-40.22v33.7L1470.77,484Z" transform="translate(-1407 -434)"/>
</svg>
